<?xml version="1.0" encoding="utf-8"?>
<!DOCTYPE svg PUBLIC "-//W3C//DTD SVG 1.1//EN" "http://www.w3.org/Graphics/SVG/1.1/DTD/svg11.dtd">
<svg version="1.1" xmlns="http://www.w3.org/2000/svg" xmlns:xlink="http://www.w3.org/1999/xlink" width="460px" height="451px" viewBox="0 0 460 451">
	<g>
		<path fill="#999999" d="M3.675,147.275l92.784-1.157v303.831l-92.784,1.178V147.275L3.675,147.275z"/>
		<path fill="#999999" d="M174.141,147.275l88.658-1.126v38.646l0.021,10.947c26.255-25.744,53.32-45.2,96.563-45.2
			c51.017,0,100.362,21.381,100.362,91.034v208.435l-90,1.341V292.12c0-35.103-8.796-57.733-50.72-57.733
			c-36.935,0-52.397,6.615-52.397,55.214V450l-92.478,1.116V147.275H174.141z"/>
		<path fill="#999999" d="M101.836,51.449c0,28.051-22.74,50.79-50.79,50.79c-28.05,0-50.791-22.739-50.791-50.791
			c0-28.051,22.739-50.791,50.791-50.791C79.097,0.657,101.837,23.396,101.836,51.449L101.836,51.449z"/>
	</g>
</svg>
